# xmcd
#
# Track frame offsets: 
#        150
#        23380
#        40590
#        55872
#        71175
#        93025
#        109577
#        140962
#        159002
#        177495
#        197815
#        212527
#        230580
#        247792
#
# Disc length: 3475 seconds
#
# Revision: 2
# Processed by: cddbd v1.5.2PL0 Copyright (c) Steve Scherf et al.
# Submitted via: ExactAudioCopy v0.95b4
#
DISCID=b10d910e
DTITLE=misc - AWM Muri
DYEAR=1997
DGENRE=Oldies
TTITLE0=The final countdown - Europe
TTITLE1=Might Wings  -  Cheap Trick
TTITLE2=Walk like an Egyptian - Bangles
TTITLE3=One love - Bob Marley
TTITLE4=Cant' fight this feeling - Reo Speedwagon
TTITLE5=Down under - Men at work
TTITLE6=Total eclipse of the heart- Bonnie Tyler
TTITLE7=Time after time - Cyndi Lauper
TTITLE8=Reaggae night - Jimmy Cliff
TTITLE9=Tell it like it is -Don Johnson
TTITLE10=Black magic woman - Santana
TTITLE11=Johnny B - Hooters
TTITLE12=Silvia's Mother - Dotor Hook
TTITLE13=Rose Garden - Lynn Anderson
EXTD=
EXTT0=
EXTT1=
EXTT2=
EXTT3=
EXTT4=
EXTT5=
EXTT6=
EXTT7=
EXTT8=
EXTT9=
EXTT10=
EXTT11=
EXTT12=
EXTT13=
PLAYORDER=
